<?xml version="1.0" encoding="UTF-8" standalone="no"?>
<svg
   version="1.0"
   width="544.000000pt"
   height="240.000000pt"
   viewBox="0 0 544.000000 240.000000"
   preserveAspectRatio="xMidYMid meet"
   id="svg32"
   sodipodi:docname="dental_chart-01.svg"
   inkscape:version="1.4.2 (f4327f4, 2025-05-13)"
   xmlns:inkscape="http://www.inkscape.org/namespaces/inkscape"
   xmlns:sodipodi="http://sodipodi.sourceforge.net/DTD/sodipodi-0.dtd"
   xmlns="http://www.w3.org/2000/svg"
   xmlns:svg="http://www.w3.org/2000/svg">
  <defs
     id="defs32" />
  <sodipodi:namedview
     id="namedview32"
     pagecolor="#ffffff"
     bordercolor="#000000"
     borderopacity="0.25"
     inkscape:showpageshadow="2"
     inkscape:pageopacity="0.0"
     inkscape:pagecheckerboard="0"
     inkscape:deskcolor="#d1d1d1"
     inkscape:document-units="pt"
     inkscape:zoom="0.85405241"
     inkscape:cx="325.50696"
     inkscape:cy="239.44666"
     inkscape:window-width="1920"
     inkscape:window-height="991"
     inkscape:window-x="-9"
     inkscape:window-y="-9"
     inkscape:window-maximized="1"
     inkscape:current-layer="g32" />
  <g
     transform="matrix(0.1,0,0,-0.1,13.464695,237.4629)"
     fill="#000000"
     stroke="none"
     id="g32">
    <path
       d="m 1879.3209,2068.8949 c -4,-7 -8,-116 -9,-243 -1,-173 -5,-252 -18,-318 -25,-128 -22,-144 43,-189 74,-52 102,-50 141,6 32,48 39,101 19,153 -6,15 -21,102 -34,193 -27,187 -36,231 -65,314 -28,81 -58,113 -77,84 z m 34,-20 c 32,-41 103,-357 103,-460 v -29 l -26,20 c -31,25 -53,26 -80,6 -10,-8 -21,-15 -24,-15 -3,0 -4,105 -3,233 2,282 1,257 12,257 5,0 13,-6 18,-12 z m 86,-496 c 17,-18 33,-52 43,-94 l 17,-67 -27,-46 c -15,-25 -34,-49 -41,-51 -16,-7 -107,40 -131,67 -14,16 -15,26 -4,89 20,120 83,165 143,102 z"
       id="tooth-6" />
    <path
       d="m 3337.4367,2060.7791 c -37,-57 -84,-258 -100,-427 -4,-36 -13,-87 -20,-115 -25,-96 -27,-123 -9,-157 23,-47 54,-78 77,-78 30,0 137,72 143,95 3,12 -3,54 -12,95 -13,57 -18,135 -21,330 -2,140 -5,261 -8,268 -7,19 -33,14 -50,-11 z m 41,-241 c 0,-244 0,-244 -20,-230 -29,20 -59,17 -91,-8 l -28,-22 7,50 c 39,282 84,454 119,454 9,0 12,-58 13,-244 z m -28,-242 c 34,-23 51,-66 58,-141 l 6,-68 -62,-39 c -69,-44 -79,-43 -117,14 -47,68 -10,211 62,241 28,11 28,11 53,-7 z"
       id="tooth-11" />
    <path
       d="m 2424.4607,1967.6766 c -3,-13 -6,-99 -6,-193 0,-111 -5,-194 -15,-240 -20,-92 -20,-189 0,-208 30,-30 214,-33 216,-4 3,38 -4,105 -21,197 -11,58 -27,152 -36,210 -25,160 -67,260 -109,260 -15,0 -25,-8 -29,-22 z m 72,-46 c 11,-26 25,-67 32,-90 13,-49 40,-207 40,-236 0,-18 -1,-18 -18,-3 -20,19 -87,23 -97,7 -3,-5 -9,-10 -13,-10 -7,0 -4,355 3,377 8,23 33,2 53,-45 z m 49,-344 c 32,-36 40,-58 54,-144 17,-113 16,-114 -81,-114 -120,0 -135,23 -109,166 18,99 87,146 136,92 z"
       id="tooth-8" />
    <path
       d="m 2812.177,1972.4954 c -29,-32 -64,-149 -81,-271 -8,-63 -23,-145 -31,-181 -9,-36 -16,-97 -17,-135 l -2,-69 45,-5 c 62,-7 157,3 172,18 16,16 15,143 -2,202 -8,26 -16,130 -19,250 -6,197 -7,205 -27,208 -11,2 -28,-6 -38,-17 z m 48,-7 c 3,-9 6,-97 6,-196 0,-153 -2,-179 -14,-169 -22,19 -83,16 -106,-4 -20,-18 -20,-18 -15,11 3,16 12,73 20,126 25,162 86,292 109,232 z m -12,-384 c 31,-24 48,-86 48,-175 0,-62 -2,-66 -27,-76 -14,-5 -60,-8 -102,-7 l -76,3 3,55 c 10,175 76,262 154,200 z"
       id="tooth-9" />
    <path
       d="m 2141.6288,1954.3535 c -5,-13 -3,-52 4,-93 19,-105 18,-315 -2,-383 -17,-60 -15,-136 5,-156 7,-7 41,-11 83,-11 96,2 105,12 91,101 -44,264 -55,327 -73,396 -33,132 -87,204 -108,146 z m 64,-55 c 22,-51 55,-193 70,-304 7,-52 6,-54 -10,-37 -19,19 -56,23 -72,7 -8,-8 -13,29 -17,122 -3,73 -11,159 -18,190 -21,102 6,114 47,22 z m 51,-356 c 31,-34 40,-57 53,-127 15,-83 8,-91 -80,-91 -53,0 -69,4 -74,16 -10,25 -7,120 5,151 12,33 48,73 64,73 6,0 21,-10 32,-22 z"
       id="tooth-7" />
    <path
       d="m 3096.0458,1958.277 c -36,-57 -75,-202 -93,-348 -10,-86 -14,-107 -25,-135 -14,-36 -16,-133 -4,-145 6,-6 43,-11 83,-13 62,-2 75,1 87,17 19,26 18,110 -2,177 -13,43 -15,81 -11,184 3,72 11,154 17,183 7,29 9,64 6,78 -8,31 -39,32 -58,2 z m 37,-55 c -4,-38 -10,-131 -14,-208 -3,-77 -10,-134 -14,-127 -12,18 -57,15 -80,-5 -18,-17 -19,-17 -12,22 27,156 57,282 78,329 36,78 52,74 42,-11 z m -26,-359 c 28,-36 47,-126 35,-172 -9,-36 -10,-37 -63,-40 -84,-5 -101,2 -101,41 0,57 27,147 51,173 29,31 52,31 78,-2 z"
       id="tooth-10" />
    <path
       d="m 1323.141,1969.5149 c -3,-9 -6,-98 -6,-198 0,-118 -5,-214 -16,-277 -19,-118 -12,-143 48,-170 58,-26 72,-25 110,9 28,25 32,35 30,74 -1,25 -9,66 -17,92 -9,26 -20,97 -25,159 -9,105 -38,242 -63,296 -14,29 -52,39 -61,15 z m 45,-17 c 25,-46 59,-206 66,-301 l 6,-97 -35,14 c -31,13 -38,13 -56,0 l -22,-15 v 191 c 0,210 11,265 41,208 z m 59,-416 c 30,-30 50,-86 50,-139 0,-23 -8,-38 -30,-57 -29,-24 -32,-24 -72,-10 -60,21 -68,31 -68,83 0,86 31,151 72,151 11,0 32,-13 48,-28 z"
       id="tooth-4"
       sodipodi:nodetypes="csccccccccccccccsccscsssc" />
    <path
       d="m 3857.3756,1968.1436 c -27,-67 -54,-200 -60,-300 -4,-59 -14,-122 -25,-153 -30,-83 -26,-124 16,-161 20,-17 39,-31 44,-31 22,0 79,25 99,44 21,19 23,27 18,81 -4,33 -10,166 -14,295 -4,129 -11,241 -15,248 -16,24 -48,13 -63,-23 z m 54,-183 2,-202 -23,11 c -19,9 -31,7 -55,-5 l -30,-16 5,78 c 9,150 60,348 86,339 9,-3 13,-63 15,-205 z m 4,-242 c 9,-19 20,-58 24,-87 6,-46 4,-54 -19,-77 -13,-13 -41,-28 -62,-32 -31,-6 -40,-3 -66,22 -28,27 -30,33 -24,74 19,123 107,183 147,100 z"
       id="tooth-13" />
    <path
       d="m 1597.6899,1930.8491 c -8,-15 -14,-93 -17,-223 -2,-110 -7,-216 -10,-235 -15,-75 -5,-104 48,-144 55,-42 71,-42 119,4 36,32 40,77 17,151 -8,24 -19,98 -26,164 -13,143 -34,249 -55,281 -20,31 -60,32 -76,2 z m 54,0 c 9,-7 23,-40 32,-73 16,-65 47,-307 39,-314 -2,-3 -10,1 -16,7 -16,16 -69,15 -93,-2 -20,-13 -20,-11 -16,167 4,218 11,247 54,215 z m 41,-389 c 31,-15 61,-81 61,-137 0,-37 -5,-48 -30,-68 -39,-31 -53,-30 -103,8 -38,29 -42,37 -42,75 0,72 34,132 77,133 7,0 23,-5 37,-11 z"
       id="tooth-5" />
    <path
       d="m 3587.1442,1943.6851 c -26,-32 -36,-83 -57,-265 -9,-80 -23,-169 -32,-198 -17,-61 -11,-96 20,-131 41,-44 64,-45 118,-5 27,20 52,47 55,60 4,14 1,65 -5,113 -6,48 -11,157 -11,242 0,164 -9,202 -47,207 -13,2 -28,-7 -41,-23 z m 58,0 c 8,-10 14,-76 17,-207 l 5,-191 -27,21 c -33,26 -41,27 -77,8 -27,-14 -28,-14 -28,7 0,39 30,270 40,306 9,33 36,71 50,71 4,0 13,-7 20,-15 z m 4,-406 c 21,-25 26,-41 26,-89 0,-57 -1,-59 -42,-89 -51,-38 -58,-38 -97,-5 -26,22 -31,33 -31,70 0,118 85,184 144,113 z"
       id="tooth-12" />
    <path
       d="m 4188.7752,1951.6564 c -17,-17 -32,-24 -46,-20 -26,7 -64,-27 -91,-80 -16,-30 -20,-64 -23,-180 -2,-78 -7,-174 -11,-214 -7,-69 -7,-72 19,-89 15,-9 39,-16 54,-15 69,4 129,3 154,-4 20,-5 31,-2 47,14 26,26 29,113 6,168 -20,47 -19,82 5,205 25,129 25,160 0,189 -19,23 -21,23 -34,6 -14,-18 -14,-18 -20,1 -13,40 -33,46 -60,19 z m 46,-33 c 9,-33 -9,-98 -50,-179 -22,-43 -26,-47 -33,-30 -22,56 -6,162 34,218 23,34 38,31 49,-9 z m -92,-16 c 0,-13 -5,-43 -11,-67 -11,-49 -3,-121 16,-148 12,-16 15,-14 34,17 12,19 37,77 57,128 55,140 83,107 53,-63 -10,-55 -18,-123 -18,-150 l -1,-50 -82,3 c -46,2 -95,4 -110,5 h -26 l -7,107 c -8,118 3,161 52,213 32,33 43,34 43,5 z m 132,-368 c 31,-39 36,-148 7,-166 -15,-9 -100,6 -94,17 9,13 -16,10 -45,-6 -36,-21 -77,-18 -101,6 -19,19 -21,29 -15,78 4,30 13,66 21,78 14,21 20,22 112,18 84,-4 100,-7 115,-25 z"
       id="tooth-14" />
    <path
       d="m 590.03622,1846.3622 c -42,-73 -51,-131 -37,-241 11,-84 10,-101 -4,-145 -34,-102 2,-173 77,-152 27,7 41,6 69,-9 45,-24 63,-23 93.99999,4 22,18 27,31 27,69 0,25 -5,55 -11,66 -6,11 -17,81 -25,156 -16.99999,160 -41.99999,218 -112.99999,267 -24,16 -46,29 -48,29 -2,0 -15,-20 -29,-44 z m 52,12 c 11,-14 33,-162 31,-212 l -1,-31 -15,35 c -8,19 -18,72 -21,118 -2,45 -9,82 -13,82 -5,0 -9,5 -9,10 0,14 16,13 28,-2 z m -21,-85 c 1,-74 30,-174 52,-181 12,-4 13,13 8,99 -3,57 -9,114 -13,127 -11,38 15,25 45,-24 34,-53 48,-108 54.99999,-219 l 5,-80 h -97.99999 -98 l -7,74 c -12,144 -4,219 27,259 18,23 23,12 24,-55 z m 130,-294 c 46.99999,-17 68.99999,-111 36.99999,-157 -20.99999,-30 -64.99999,-29 -102.99999,4 -17,14 -31,21 -31,15 0,-5 -16,-13 -35,-17 -42,-8 -75,15 -75,52 0,36 30,102 48,107 30,8 136,5 159,-4 z"
       id="tooth-2" />
    <path
       d="m 981.72181,1911.3053 c -4,-3 -7,-15 -7,-26 0,-20 -1,-20 -20,-2 -50,45 -67,-46 -36,-190 20,-89 20,-171 1,-225 -18,-50 -19,-86 -4,-128 13,-39 36,-47 88.99999,-31 33,10 51,10 90,0 41,-11 53,-10 79,3 40,21 48,55 30,131 -8,36 -14,114 -14,195 0,145 -5,165 -59,223 -20,22 -33,27 -50,23 -16,-4 -29,1 -41,14 -18,20 -45.99999,26 -57.99999,13 z m 56.99999,-36 c 14,-19 30,-56 35,-83 10,-50 4,-131 -9,-139 -10,-6 -69.99999,125 -76.99999,169 -6,39 3,86 16.99999,86 5,0 20,-15 34,-33 z m -58.99999,-83 c 38.99999,-98 72.99999,-164 83.99999,-164 27,0 40,123 20,194 -15,53 1,68 34,32 48,-51 57,-86 57,-210 v -116 h -27 c -16,1 -64,-1 -109,-2 l -80.99999,-4 -11,86 c -6,47 -17,114 -23,150 -13,69 -6,124 13,118 7,-3 26,-40 43,-84 z m 190.99999,-295 c 12,-14 19,-40 22,-86 4,-56 2,-69 -14,-80 -24,-18 -68,-16 -106,3 -22,11 -33,13 -38,5 -11,-18 -77.99999,-26 -94.99999,-11 -20,17 -20,111 0,150 14,27 19,29 87.99999,33 39,1 84,4 98,5 15,1 33,-6 45,-19 z"
       id="tooth-3" />
    <path
       d="m 4524.3648,1927.2285 c -64,-55 -89,-117 -100,-251 -5,-59 -15,-127 -24,-151 -27,-79 -15,-141 32,-159 23,-9 35,-7 68,10 33,17 46,19 74,11 42,-12 88,9 97,44 3,14 -2,50 -11,81 -13,46 -15,81 -10,184 6,101 4,134 -9,169 -16,45 -52,102 -64,102 -4,0 -28,-18 -53,-40 z m 61,12 c 0,-5 -3,-12 -7,-16 -5,-4 -9,-35 -9,-69 -1,-64 -21,-154 -31,-143 -12,12 3,164 22,224 5,13 25,17 25,4 z m -62,-133 c -13,-114 -8,-153 17,-128 20,20 45,123 45,186 0,63 14,68 37,16 18,-42 22,-152 10,-244 l -8,-56 -82,-2 c -45,0 -89,-3 -97,-6 -14,-4 -15,7 -8,98 4,56 15,121 24,145 15,40 62,107 70,99 2,-2 -1,-51 -8,-108 z m 87,-245 c 43,-17 63,-134 26,-154 -28,-15 -57,-12 -75,6 -15,14 -19,13 -47,-10 -51,-44 -100,-30 -114,32 -8,38 19,106 48,120 24,12 136,16 162,6 z"
       id="tooth-15" />
    <path
       d="m 233.56016,1820.2005 c -4,-9 -14,-14 -23,-13 -14,3 -15,-7 -11,-72 7,-106 5,-202 -5,-298 -7,-72 -6,-84 10,-102 21,-23 36,-25 81,-8 27,9 38,8 70,-7 34,-16 41,-16 63,-4 29,17 41,59 30,102 -5,16 -13,74 -20,130 -6,56 -20,122 -31,147 -21,48 -55,90 -73,90 -6,0 -22,11 -35,25 -27,28 -48,32 -56,10 z m 58,-36 c 13,-17 21,-48 24,-90 l 4,-64 -14,42 c -7,23 -25,63 -40,89 -14,25 -26,49 -26,51 0,13 36,-6 52,-28 z m -23,-58 c 11,-28 26,-73 33,-100 6,-28 15,-51 19,-51 15,0 21,89 10,141 -6,28 -10,54 -7,56 10,10 57,-64 70,-110 15,-52 32,-187 24,-187 -2,0 -19,11 -38,25 -39,29 -87,32 -130,10 l -30,-16 v 83 c 0,46 -3,114 -7,152 -6,66 -6,68 14,58 11,-6 30,-34 42,-61 z m 113,-245 c 48,-37 58,-53 58,-92 0,-64 -35,-79 -100,-43 l -38,21 -21,-21 c -27,-27 -46,-27 -65,1 -35,50 -13,129 43,152 54,22 74,19 123,-18 z"
       id="tooth-1" />
    <path
       d="m 4906.3059,1889.4183 c -13,-14 -30,-25 -38,-25 -42,0 -87,-102 -105,-240 -7,-58 -16,-122 -19,-143 -9,-58 10,-87 57,-87 21,0 41,5 45,11 6,10 38,8 95,-6 54,-14 79,45 59,142 -8,41 -11,115 -9,201 2,75 0,137 -4,137 -5,0 -13,8 -18,18 -14,24 -36,21 -63,-8 z m 30,-34 c -8,-9 -27,-46 -40,-81 -26,-68 -33,-55 -15,29 12,56 61,120 67,88 2,-10 -3,-26 -12,-36 z m 47,-48 c -4,-38 -8,-104 -8,-149 v -81 l -32,14 c -50,21 -97,16 -131,-12 -17,-14 -33,-25 -36,-25 -6,0 1,68 16,150 9,51 47,132 67,144 5,3 8,-37 7,-89 -1,-98 13,-130 26,-56 12,72 64,171 90,171 5,0 5,-30 1,-67 z m -24,-241 c 20,-14 27,-30 29,-62 4,-55 -4,-86 -24,-94 -16,-6 -54,9 -65,26 -3,5 -26,-1 -51,-13 -51,-25 -74,-21 -88,15 -15,41 5,89 52,124 36,27 50,32 82,28 22,-3 51,-13 65,-24 z"
       id="tooth-16" />
    <path
       d="m 2445.1267,989.30218 c -19,-19.00004 -19,-37.00004 7,-194.00004 8,-49 19,-161 24,-249 10,-158 13,-176 30,-176 29,0 60,164 60,323 0,54 4,107 10,117 17,32 23,153 8,171 -20,26.00006 -116,31.00006 -139,8.00004 z m 126,-79.00004 c 0,-84 -17,-136 -47,-146 -35,-11 -57,24 -70,112 -16,109.00004 -12,116.00004 59,112.00004 l 58,-3 z m -20,-194 c 12,-63 -24,-326 -44,-326 -4,0 -11,62 -14,138 -4,75 -10,158 -13,183 l -6,45 36,-4 c 31,-4 36,-8 41,-36 z"
       id="tooth-25" />
    <path
       d="m 2725.0176,999.97894 c -18,-17.99992 -20,-110.99992 -4,-163.99992 6,-19 12,-89 14,-155 3,-141 20,-250 42,-284 15,-23 16,-24 29,-6 9,12 14,48 14,104 0,82 20,268 40,376 12,65 12,107 1,123.99992 -13,20.99996 -116,23.99996 -136,5 z m 122,-14.99992 c 11,-11 9,-56 -9,-147 -8,-42 -15,-56 -35,-65 -22,-10 -28,-8 -43,11 -29,36 -50,155 -34,196 7,18.99992 103,22.99988 121,5 z m -22,-246 c -4,-19 -24,-278 -25,-333 0,-10 -3,-11 -11,-3 -16,16 -39,178 -39,273 v 85 l 41,1 c 37,0 40,-2 34,-23 z"
       id="tooth-24" />
    <path
       d="m 2204.3519,1000.2651 c -16,-3.00003 -33,-10.00004 -37,-16.00004 -12,-19 -9,-116 7,-205 8,-46 20,-159 25,-250 6,-92 13,-177 15,-190 13,-55 49,1 64,99 6,35 15,171 21,302 9,186 9,241 0,252 -12,15.00004 -35,16.00004 -95,8.00004 z m 89,-89.00004 c -1,-47 -8,-86 -22,-117 -20,-45 -22,-46 -46,-36 -13,6 -29,23 -35,38 -13,31 -18,162 -7,180 5,8 26,11 59,9 l 52,-3 z m -34,-166 c 20,12 20,10 20,-90 -1,-149 -28,-333 -47,-314 -3,3 -9,63 -14,133 -4,71 -11,163 -15,207 l -7,78 22,-13 c 17,-11 25,-11 41,-1 z"
       id="tooth-26" />
    <path
       d="m 2980.0479,981.12084 c -6,-11.99997 -8,-41.99997 -5,-72.99997 3,-28 10,-141 15,-251 5,-110 14,-222 21,-250 14,-61 38,-101 52,-87 5,5 14,79 19,163 5,85 14,190 20,234 19,139 22,254 9,269.99997 -8,10 -31,14.99996 -66,14.99996 -44,0 -55,-3.99996 -65,-20.99996 z m 124,-12.99997 c 4,-6 6,-45 4,-88 -10,-197 -120,-156 -119,44 1,28 6,53.99997 13,57.99997 16,10 92,0 102,-13.99997 z m -37,-227 c 26,12 26,11 20,-24 -8,-39 -25,-271 -26,-345 -1,-40 -2,-43 -14,-27 -20,26 -34,120 -42,282 l -7,140 22,-19 c 18,-16 25,-17 47,-7 z"
       id="tooth-23" />
    <path
       d="m 3247.847,1032.8541 c -45,-30 -62,-71.00001 -54,-132.00001 3,-26 12,-129 20,-228 15,-183 32,-261 68,-326 37,-66 97,-73 83,-10 -10,45 -7,331 4,421 5,41 14,95 21,119 16,63 5,95.99999 -43,134.00001 -60,48 -60,48 -99,22 z m 90,-33.00002 c 34,-30.99999 42,-45.99999 42,-72.99999 0,-115 -81,-190 -139,-128 -24,26 -46,120 -36,156 6,25.99999 62,83.00001 81,83.00001 6,0 29,-17 52,-38.00002 z m -50,-241.99999 c 10,0 27,7 38,15 10,8 21,15 24,15 3,0 2,-39 -3,-87 -5,-49 -7,-157 -5,-240 2,-84 1,-153 -3,-153 -15,0 -42,34 -59,74 -29,70 -42,143 -49,276 l -6,129 22,-14 c 12,-8 31,-15 41,-15 z"
       id="tooth-22" />
    <path
       d="m 1884.1487,981.76915 -47,-42 5,-55 c 4,-31 11,-78 17,-106 6,-27 13,-153 14,-278 2,-125 6,-230 9,-234 12,-11 57,28 76,65 31,61 50,149 56,267 8,145 12,183 26,254 14,72 3,107 -43,146.00003 -40,34.00002 -58,32.00002 -113,-17.00003 z m 111,-2 c 28,-28 34,-41 34,-77 0,-64 -17,-115 -46,-138 -52,-41 -117,16 -130,113 -7,46 -6,48 40,91 25,25.00003 51,45.00005 57,45.00005 6,0 26,-15.00002 45,-34.00005 z m -49,-246 c 10,0 29,7 41,16 21,15 22,14 22,-13 -2,-181 -38,-372 -81,-427 -41,-53 -44,-40 -44,214 v 239 l 22,-14 c 12,-8 30,-15 40,-15 z"
       id="tooth-27" />
    <path
       d="m 726.26457,958.23674 c -13,-5 -47,-7 -76,-3 -97,12 -126,-31 -100,-145 20,-88 20,-191 1,-261 -25,-86 -29,-136 -14,-145 16,-11 99,80 128,139 26,54 26,31 0,-55 -17,-56 -19,-72 -9,-84 17,-21 33,-19 58,8 34,36 68,116 87,202 53,239 57,314 19,342 -21,15 -59,16 -94,2 z m 91,-20 c 18,-18 21,-30 16,-72 -2,-30 -11,-55 -21,-62 -8,-7 -62,-15 -118,-18 -116,-7 -125,-3 -135,56 -13,82 20,118 91,98 23,-7 49,-15 59,-17 11,-4 16,-1 15,7 -3,11 28,25 60,28 6,1 22,-9 33,-20 z m -25,-297 c -25,-111 -41,-151 -78,-204 -22,-31 -48,-37 -48,-10 0,9 9,46 20,80 21,65 26,122 12,122 -4,0 -22,-28 -39,-62 -17,-35 -48,-82 -68,-106 -52,-60 -64,-44 -34,50 17,53 23,98 23,164 l 1,91 35,1 c 19,1 71,5 115,9 69,7 80,6 83,-8 2,-9 -8,-66 -22,-127 z"
       id="tooth-31" />
    <path
       d="m 1001.4409,975.97025 c -18.00004,-8 -44.00004,-15 -57.00004,-15 -47,0 -56,-61 -23,-155 19,-53 21,-74 16,-172 -5,-83 -13,-132 -31,-185 -19,-53 -22,-75 -14,-85 6,-7 14,-13 19,-13 24,0 83,71 124.00004,150 25,50 51,90 57,90 11,0 6,-99 -8,-160 -7,-35 19,-69 43,-54 29,17 62,73 80,133 12,43 14,78 9,154 -5,84 -3,104 13,140 11,23 22,63 26,89 6,42 4,49 -20,73 -21,22 -32,26 -58,20 -47,-9 -68,-10 -107,-2 -22,4 -47,1 -69,-8 z m 227,-18 c 27,-21 7,-138 -28,-157 -10,-6 -47,-10 -82,-10 -35,0 -81,-5 -102,-10 -24.00004,-5 -46.00004,-5 -57.00004,0 -22,12 -39,62 -39,116 0,34 4,44 20,49 11,3 24,3 30,0 6,-3 17,1 26,9 20.00004,21 102.00004,22 110.00004,1 5,-12 11,-11 41,5 34,18 54,17 81,-3 z m -24,-278 c 8,-129 -19,-234 -73,-283 -19,-17 -21,-17 -27,-2 -3,9 -1,50 5,91 11,78 3,125 -22,125 -7,0 -31,-38 -54,-84 -44.00004,-88 -96.00004,-156 -119.00004,-156 -18,0 -18,6 7,76 17,45 23,90 26,190 5,116 7,131 22,127 9,-2 34.00004,0 56.00004,5 22,6 70,9 106,8 l 66,-1 z"
       id="tooth-30" />
    <path
       d="m 1620.3472,973.66436 c -39,-35 -40,-39 -36,-82 3,-25 10,-71 17,-101 6,-32 10,-128 8,-232 -3,-181 2,-208 35,-195 34,13 79,190 112,440 9,65 14,126 10,136 -6,20 -73,71.00004 -93,71.00004 -7,0 -30,-17.00002 -53,-37.00004 z m 101,-5 c 24,-18 30,-29 30,-60 0,-56 -24,-106 -54,-114 -37,-9 -65,4 -87,39 -28,48 -25,85 13,124 37,39.00002 58,41.00002 98,11 z m -1,-299 c -31,-194 -66,-308 -89,-294 -5,3 -8,96 -8,208 l 1,202 45,-4 c 24,-2 49,2 55,8 6,6 12,9 14,8 1,-2 -6,-59 -18,-128 z"
       id="tooth-28" />
    <path
       d="m 3511.2096,1018.2078 c -42,-37.99995 -43,-53.99995 -15,-244.99995 36,-251 77,-380 118,-372 15,3 17,23 18,213 1,164 5,221 18,260 26,80 22,99 -28,138.99995 -23,20 -50,36 -59,36 -9,0 -32,-14 -52,-31 z m 135,-85.99995 c 0,-36 -6,-50 -29,-74 -16,-16 -39,-29 -51,-29 -34,0 -68,42 -75,94 -8,51 0,66.99996 49,96.99995 29,18 30,18 68,-12 34,-26.99995 38,-34.99995 38,-75.99995 z m -125,-103 c 8,-13 78,-13 91,-1 5,6 8,-64 7,-192 -2,-255 0,-232 -18,-217 -22,18 -51,124 -79,283 -21,121 -21,159 -1,127 z"
       id="tooth-21" />
    <path
       d="m 3783.4585,1030.9784 c -50,-37.99999 -52,-51.99999 -31,-181.99997 6,-38 12,-99 12,-135 0,-142 51,-305 95,-305 18,0 21,10 27,115 3,63 13,152 22,198 8,45 18,126 22,180 l 7,97.99998 -34,24.99999 c -56,43 -71,44 -120,6 z m 104,-12 c 34,-23.99999 37,-29.99999 37,-72.99997 0,-54 -27,-107 -65,-124 -45,-20 -92,32 -109,121 -5,29 -2,37.99998 30,66.99997 43,41 58,42 107,9 z m -52,-214.99997 c 14,0 35,7 47,16 21,15 22,14 22,-13 0,-15 -7,-66 -16,-113 -8,-47 -15,-126 -15,-177 0,-51 -3,-94 -8,-98 -15,-9 -47,55 -65,125 -8,36 -19,117 -22,180 -7,114 -7,115 13,98 11,-10 31,-18 44,-18 z"
       id="tooth-20" />
    <path
       d="m 4016.4303,1023.5309 c -27,-26.99996 -26,-86.99994 1,-150.99994 19,-44 21,-61 15,-142 -7,-105 8,-183 50,-255 30,-50 49,-61 71,-39 15,14 15,26 4,101 -9,57 -10,90 -3,102 8,15 17,4 52,-66 51,-101 77,-138 110,-155 53,-27 62,-1 28,85 -29,76 -38,299 -14,360 32,79 17,149.99994 -32,153.99994 -9,1 -36,8 -60,16 -33,10 -51,11 -79,2 -23,-7 -42,-8 -54,-2 -29,16 -68,11 -89,-10 z m 86,-7 c 28,-14 38,-15 41,-5 7,18 102,16 109,-3 4,-8.99996 15,-11.99996 33,-8.99996 40,7.99996 55,-15 47,-72.99998 -3,-26 -13,-57 -21,-70 -15,-23 -19,-23 -123,-18 -140,8 -148,10 -160,42 -35,91 -25,134.99994 35,151.99994 1,1 19,-7 39,-16 z m 160,-195.99994 31,-2 5,-120 c 5,-93 11,-137 31,-193 14,-39 21,-74 17,-77 -26,-16 -71,38 -134,163 -35,70 -58,88 -70,56 -9,-23 -7,-83 4,-132 7,-30 7,-49 -1,-63 -14,-27 -31,-13 -66,60 -26,53 -28,64 -28,187 v 131 l 90,-4 c 50,-2 104,-5 121,-6 z"
       id="tooth-19" />
    <path
       d="m 4427.2402,1021.0724 c -17,-11 -34,-47.99998 -34,-75.99997 0,-14 14,-94 30,-178 43,-220 112,-351 158,-304 15,15 15,22 -2,83 -28,103 -29,111 -7,69 26,-49 84,-124 111,-143 18,-13 21,-12 29,8 8,23 6,36 -23,144 -20,73 -20,129 -1,220 18,84 19,106 4,138.99999 -15,31.99998 -54,45.99998 -96,32.99998 -23,-7 -44,-7 -72,1 -44,14 -81,15 -97,4 z m 65,-8 c 22,-5 30,-11 27,-19.99998 -7,-17 -10,-17 53,2 67,18.99998 95,12.99998 111,-26 14,-34.99999 1,-97.99999 -24,-118.99999 -19,-16 -214,2 -233,21 -21,22 -21,102.99999 1,126.99999 21,22.99998 21,22.99998 65,14.99998 z m 136,-182.99997 40,-1 -3,-85 c -3,-66 2,-102 18,-159 12,-40 20,-81 18,-91 -5,-29 -70,44 -114,129 -29,55 -38,66 -46,53 -6,-11 -1,-47 16,-107 26,-96 21,-118 -19,-80 -40,38 -80,155 -109,320 l -6,35 82,-7 c 46,-3 101,-7 123,-7 z"
       id="tooth-18" />
    <path
       d="m 380.04854,939.06425 c -4,-4 -35,-8 -69,-10 -162,-6 -169,-16 -127,-182 19,-76 -6,-177 -64,-259 -36.999997,-52 -26.999997,-71 25,-48 39,17 60,35 107,89 39,46 41,35 5,-38 -32,-65 -24,-86 25,-66 82,34 145,146 162,286 25,204 25,200 -1,219 -25,17 -51,21 -63,9 z m 64,-34 c 10,-18 8,-50 -6,-100 -3,-11 -20,-18 -52,-22 -26,-4 -68,-9 -94,-13 -85,-12 -118,13 -118,91 0,37 23,52 60,40 12,-4 20,-2 20,5 0,9 19,11 65,8 36,-2 65,0 65,4 0,18 50,7 60,-13 z m -14,-195 c -10,-98 -41,-170 -97,-226 -44,-44 -79,-61 -79,-39 0,5 11,33 24,62 43,96 45,164 2,85 -22,-41 -112,-133 -138,-142 -32,-10 -32,3 1,49 40,54 61,123 61,196 v 56 l 48,1 c 37,2 164,17 181,23 2,0 1,-28 -3,-65 z"
       id="tooth-32" />
    <path
       d="m 1354.4126,979.41771 c -37,-23 -47,-50 -38,-110 3,-24 10,-79 15,-123 5,-44 14,-104 20,-134 6,-29 11,-98 11,-151 0,-107 12,-136 44,-104 45,45 72,147 82,314 3,63 12,142 18,175 15,76 10,98 -33,130 -41,29.99999 -74,30.99999 -119,3 z m 104,-10 c 37,-28 44,-38 44,-63 0,-65 -49,-145 -90,-145 -29,0 -66,40 -78,84 -16,56 -5,98 31,123 41,27.99996 58,27.99996 93,1 z m -46,-218 c 14,0 35,6 46,14 20,14 20,13 17,-77 -5,-124 -38,-270 -68,-305 l -24,-27 -1,86 c 0,47 -9,134 -20,194 -11,60 -20,117 -20,127 0,18 2,18 22,4 12,-9 34,-16 48,-16 z"
       id="tooth-29" />
    <path
       d="m 4784.0111,1007.1008 c -18,-18.00001 -21,-29.00001 -16,-59.00005 4,-20 11,-78 17,-130 16,-152 64,-250 146,-298 33,-19 47,-23 56,-14 12,12 10,17 -28,106 l -17,40 53,-58 c 61,-64 125,-99 136,-72 3,10 -7,33 -24,58 -61,84 -78,191 -48,291 35,116.00004 22,132.00005 -125,141.00005 -30,2 -71,6 -91,10 -30,6 -41,3 -59,-15 z m 70,-7 c 0,-5.00001 27,-6.00001 60,-5.00001 37,2 60,0 60,-6 0,-7 14,-9 34,-5 22,3 36,1 42,-8 12,-20 5,-81.00004 -12,-108.00004 -15,-21 -21,-23 -72,-18 -152,16 -163,19 -173,44 -10,28 -12,97.00004 -2,106.00005 9,9 63,9 63,0 z m 77,-164.00005 c 33,-6 69,-8 80,-5 16,5 18,-1 20,-62 1,-78 21,-138 63,-195 35,-47 26,-58 -22,-29 -40,25 -77,64 -113,120 -15,23 -31,42 -35,42 -13,0 9,-78 36,-132 14,-27 23,-52 20,-55 -10,-10 -45,9 -81,44 -51,50 -83,124 -93,215 l -8,76 36,-4 c 19,-3 63,-10 97,-15 z"
       id="tooth-17" />
  </g>
</svg>


